<svg class="xs:w-[30px] xs:h-[30px]" xmlns="http://www.w3.org/2000/svg" width="45" height="45" viewBox="0 0 45 45" fill="none"><path d="M5.44215 0.355469C2.63245 0.355469 0.355469 2.63245 0.355469 5.44215V21.627H21.627V0.355469H5.44215ZM13.7658 12.841H11.9161V14.6907C11.9161 15.4564 11.2946 16.0779 10.5288 16.0779C9.76305 16.0779 9.14155 15.4564 9.14155 14.6907V12.841H7.29185C6.52608 12.841 5.90458 12.2195 5.90458 11.4537C5.90458 10.6879 6.52608 10.0664 7.29185 10.0664H9.14155V8.2167C9.14155 7.45093 9.76305 6.82943 10.5288 6.82943C11.2946 6.82943 11.9161 7.45093 11.9161 8.2167V10.0664H13.7658C14.5316 10.0664 15.1531 10.6879 15.1531 11.4537C15.1531 12.2195 14.5316 12.841 13.7658 12.841Z" fill="#025586"></path><path d="M0.355469 23.4766V39.6615C0.355469 42.4712 2.63245 44.7481 5.44215 44.7481H21.627V23.4766H0.355469ZM14.2837 35.4441C14.8257 35.9861 14.8257 36.8647 14.2837 37.4067C14.0137 37.6767 13.6585 37.8118 13.3034 37.8118C12.9482 37.8118 12.5931 37.6767 12.323 37.4048L10.9913 36.073L9.65947 37.4048C9.38941 37.6749 9.03427 37.8118 8.67913 37.8118C8.32399 37.8118 7.96884 37.6767 7.69879 37.4048C7.15682 36.8629 7.15682 35.9842 7.69879 35.4423L9.03057 34.1105L7.69879 32.7787C7.15682 32.2368 7.15682 31.3581 7.69879 30.8162C8.24075 30.2742 9.11936 30.2742 9.66132 30.8162L10.9931 32.148L12.3249 30.8162C12.8669 30.2742 13.7455 30.2742 14.2874 30.8162C14.8294 31.3581 14.8294 32.2368 14.2874 32.7787L12.9556 34.1105L14.2837 35.4441Z" fill="#025586"></path><path d="M39.6615 0.355469H23.4766V21.627H44.7481V5.44215C44.7481 2.63245 42.4712 0.355469 39.6615 0.355469ZM38.7366 12.3785H30.4129C29.6472 12.3785 29.0257 11.757 29.0257 10.9913C29.0257 10.2255 29.6472 9.60398 30.4129 9.60398H38.7366C39.5024 9.60398 40.1239 10.2255 40.1239 10.9913C40.1239 11.757 39.5024 12.3785 38.7366 12.3785Z" fill="#025586"></path><path d="M23.4766 23.4766V44.7481H39.6615C42.4712 44.7481 44.7481 42.4712 44.7481 39.6615V23.4766H23.4766ZM38.2742 38.2742H29.9505C29.1847 38.2742 28.5632 37.6527 28.5632 36.8869C28.5632 36.1211 29.1847 35.4996 29.9505 35.4996H38.2742C39.04 35.4996 39.6615 36.1211 39.6615 36.8869C39.6615 37.6527 39.04 38.2742 38.2742 38.2742ZM38.2742 32.7251H29.9505C29.1847 32.7251 28.5632 32.1036 28.5632 31.3378C28.5632 30.572 29.1847 29.9505 29.9505 29.9505H38.2742C39.04 29.9505 39.6615 30.572 39.6615 31.3378C39.6615 32.1036 39.04 32.7251 38.2742 32.7251Z" fill="#025586"></path></svg>