<svg xmlns="http://www.w3.org/2000/svg" width="23" height="28" viewBox="0 0 23 28" fill="none"><path d="M11.5145 13.4957C15.2202 13.4957 18.2244 10.5069 18.2244 6.82012C18.2244 3.13329 15.2202 0.144531 11.5145 0.144531C7.80878 0.144531 4.80469 3.13329 4.80469 6.82012C4.80469 10.5069 7.80878 13.4957 11.5145 13.4957Z" fill="white"></path><path d="M15.0075 16.2773H8.01814C3.96429 16.2773 0.609375 19.6153 0.609375 23.6484C0.609375 24.6219 1.02874 25.4564 1.86747 25.8736C3.12555 26.569 5.92132 27.4032 11.5128 27.4032C17.1044 27.4032 19.9001 26.569 21.1582 25.8736C21.8571 25.4564 22.4163 24.6219 22.4163 23.6484C22.4163 19.4761 19.0614 16.2773 15.0075 16.2773Z" fill="white"></path></svg>