<?xml version="1.0" standalone="no"?>
<!DOCTYPE svg PUBLIC "-//W3C//DTD SVG 20010904//EN"
 "http://www.w3.org/TR/2001/REC-SVG-20010904/DTD/svg10.dtd">
<svg version="1.0" xmlns="http://www.w3.org/2000/svg"
 width="2560.000000pt" height="627.000000pt" viewBox="0 0 2560.000000 627.000000"
 preserveAspectRatio="xMidYMid meet">

<g transform="translate(0.000000,627.000000) scale(0.100000,-0.100000)"
fill="#FFF" stroke="none">
<path d="M9440 4072 l0 -1872 260 0 260 0 0 1225 c0 674 3 1225 7 1225 5 0
605 -597 1335 -1327 l1328 -1328 0 1858 0 1857 -260 0 -260 0 0 -1215 c0 -726
-4 -1215 -9 -1215 -5 0 -606 599 -1335 1332 l-1326 1332 0 -1872z"/>
<path d="M20235 5769 c-417 -44 -767 -310 -874 -664 -44 -145 -44 -358 0 -500
43 -140 112 -248 235 -365 138 -132 281 -213 614 -350 309 -127 422 -191 525
-295 106 -107 145 -209 145 -378 0 -174 -53 -309 -167 -423 -216 -216 -608
-218 -822 -3 -91 91 -143 208 -175 397 -8 46 -17 86 -20 89 -5 5 -100 -14
-459 -94 l-69 -16 7 -46 c23 -152 93 -350 173 -485 56 -93 190 -239 277 -302
133 -94 309 -161 493 -185 107 -14 331 -7 428 15 263 57 495 204 656 416 67
87 152 265 177 370 101 416 -7 808 -287 1046 -149 128 -295 206 -641 349 -269
110 -334 141 -417 201 -203 144 -230 390 -63 568 127 136 336 195 540 152 138
-30 255 -119 344 -263 21 -35 41 -63 45 -63 13 0 415 240 418 249 2 5 -24 48
-57 97 -195 291 -450 451 -772 484 -112 11 -138 11 -254 -1z"/>
<path d="M1360 3955 l0 -1755 265 0 265 0 0 835 0 835 660 0 660 0 0 250 0
250 -660 0 -660 0 0 420 0 420 683 2 682 3 0 245 0 245 -947 3 -948 2 0 -1755z"/>
<path d="M4030 3955 l0 -1755 260 0 260 0 0 1755 0 1755 -260 0 -260 0 0
-1755z"/>
<path d="M5540 3955 l0 -1755 925 0 925 0 0 250 0 250 -660 0 -660 0 0 1505 0
1505 -265 0 -265 0 0 -1755z"/>
<path d="M7990 3955 l0 -1755 263 2 262 3 0 1750 0 1750 -262 3 -263 2 0
-1755z"/>
<path d="M13083 5698 c96 -241 1533 -3606 1537 -3601 5 6 1481 3402 1557 3581
l13 32 -288 0 -288 0 -489 -1207 c-268 -665 -491 -1211 -494 -1215 -3 -4 -224
540 -491 1208 l-485 1214 -289 0 c-226 0 -287 -3 -283 -12z"/>
<path d="M16670 3955 l0 -1755 965 0 965 0 0 250 0 250 -700 0 -700 0 0 585 0
585 680 0 680 0 0 250 0 250 -680 0 -680 0 0 420 0 420 700 0 700 0 0 250 0
250 -965 0 -965 0 0 -1755z"/>
<path d="M21800 5460 l0 -250 480 0 480 0 0 -1505 0 -1505 260 0 260 0 0 1505
0 1505 480 0 480 0 0 250 0 250 -1220 0 -1220 0 0 -250z"/>
<path d="M2605 1249 c-148 -319 -271 -587 -273 -595 -3 -12 11 -14 84 -12 l88
3 62 135 62 135 242 0 241 0 59 -135 59 -135 92 -3 c71 -2 90 0 86 10 -14 37
-521 1164 -526 1170 -3 4 -127 -254 -276 -573z m353 21 c39 -91 74 -173 77
-182 7 -17 -5 -18 -164 -18 -94 0 -171 2 -171 4 0 2 30 68 66 147 37 79 75
164 86 188 10 24 22 40 27 35 4 -5 40 -83 79 -174z"/>
<path d="M3872 1238 l3 -593 83 -3 82 -3 0 391 c0 228 4 390 9 388 6 -2 764
-788 807 -837 2 -2 4 262 4 587 l0 592 -85 0 -85 0 -2 -384 -3 -385 -400 420
c-220 230 -403 419 -408 419 -4 0 -6 -267 -5 -592z"/>
<path d="M9370 1235 l0 -596 83 3 82 3 5 388 5 389 403 -421 c222 -232 406
-421 408 -421 2 0 4 266 4 590 l0 590 -85 0 -85 0 -2 -387 -3 -387 -404 422
c-222 232 -406 422 -408 422 -1 0 -3 -268 -3 -595z"/>
<path d="M19629 1244 c-151 -323 -275 -591 -277 -595 -2 -5 37 -9 86 -9 l89 0
59 128 c32 70 62 133 67 140 7 9 68 12 243 12 212 0 235 -2 245 -17 5 -10 34
-72 62 -138 l52 -120 93 -3 c52 -1 92 1 89 5 -3 4 -123 271 -267 593 -144 322
-263 586 -265 588 -1 1 -126 -261 -276 -584z m354 28 c42 -98 77 -183 77 -190
0 -9 -42 -12 -165 -12 -91 0 -165 3 -165 8 0 11 164 371 170 372 3 0 40 -80
83 -178z"/>
<path d="M11390 1779 c-326 -42 -556 -357 -497 -684 21 -118 67 -205 157 -296
118 -121 241 -172 410 -172 102 -1 149 9 248 49 l62 26 0 99 c0 55 -2 99 -4
99 -2 0 -33 -20 -70 -45 -79 -53 -147 -75 -231 -75 -257 0 -451 234 -407 491
30 174 146 303 312 345 110 28 235 3 342 -70 l53 -35 3 86 c2 48 0 93 -2 100
-3 8 -29 24 -58 37 -97 42 -212 59 -318 45z"/>
<path d="M12743 1765 c-207 -56 -385 -245 -422 -449 -36 -198 19 -379 158
-516 124 -123 245 -173 411 -173 177 0 297 50 420 173 120 119 170 238 170
405 0 161 -53 288 -170 406 -80 80 -159 127 -260 154 -70 19 -238 18 -307 0z
m236 -145 c121 -23 244 -120 299 -237 25 -53 27 -68 27 -178 0 -109 -2 -125
-26 -175 -155 -327 -597 -334 -756 -12 -37 74 -38 79 -38 186 0 104 2 115 32
179 84 177 271 273 462 237z"/>
<path d="M16856 1765 c-185 -51 -349 -210 -407 -395 -25 -81 -27 -237 -4 -324
47 -179 191 -327 382 -392 98 -34 243 -38 338 -10 198 59 356 212 411 401 23
80 23 230 0 309 -31 105 -74 176 -155 256 -83 82 -162 130 -256 155 -73 18
-241 19 -309 0z m302 -163 c232 -89 337 -363 225 -592 -37 -76 -118 -154 -200
-193 -63 -30 -75 -32 -173 -32 -98 0 -109 2 -171 33 -271 131 -330 480 -117
690 57 57 128 97 198 112 63 13 180 4 238 -18z"/>
<path d="M1340 1200 l0 -560 283 2 282 3 3 78 3 77 -206 0 -205 0 0 480 0 480
-80 0 -80 0 0 -560z"/>
<path d="M5560 1200 l0 -560 128 0 c273 1 385 24 506 107 152 104 229 258 229
458 0 167 -51 297 -158 401 -126 121 -234 154 -517 154 l-188 0 0 -560z m342
400 c100 -15 171 -45 231 -100 164 -149 167 -434 7 -584 -88 -82 -187 -116
-337 -116 l-73 0 0 405 0 405 53 0 c28 0 82 -5 119 -10z"/>
<path d="M8520 1200 l0 -560 85 0 85 0 0 560 0 560 -85 0 -85 0 0 -560z"/>
<path d="M14052 1203 l3 -558 83 -3 82 -3 0 231 c0 214 1 230 18 230 12 0 71
-76 177 -230 l160 -229 104 -1 c81 0 101 3 93 13 -44 56 -332 459 -332 466 0
5 12 11 28 14 15 3 48 19 74 36 183 117 184 415 2 531 -70 44 -159 60 -339 60
l-155 0 2 -557z m377 375 c62 -31 95 -92 87 -161 -12 -108 -77 -158 -213 -165
l-83 -5 0 183 0 183 82 -6 c55 -5 97 -14 127 -29z"/>
<path d="M15310 1201 l0 -561 80 0 80 0 0 230 0 230 70 0 c171 0 294 59 355
172 38 70 47 187 20 273 -24 74 -95 154 -167 186 -48 21 -71 23 -245 27 l-193
4 0 -561z m377 378 c63 -33 85 -76 81 -156 -7 -111 -70 -160 -213 -165 l-80
-3 -3 179 -2 179 85 -6 c63 -3 98 -11 132 -28z"/>
<path d="M18162 1203 l3 -558 83 -3 82 -3 0 231 c0 214 1 230 18 230 12 0 71
-76 177 -230 l160 -229 104 -1 c81 0 101 3 94 13 -32 40 -333 458 -333 461 0
3 24 15 53 29 113 52 176 142 185 266 8 123 -42 232 -134 291 -70 44 -159 60
-339 60 l-155 0 2 -557z m377 375 c59 -30 81 -62 87 -129 4 -44 1 -63 -18 -99
-33 -65 -88 -93 -195 -98 l-83 -5 0 183 0 183 82 -6 c55 -5 97 -14 127 -29z"/>
<path d="M20790 1685 l0 -75 130 0 130 0 0 -485 0 -485 85 0 85 0 0 485 0 485
130 0 130 0 0 75 0 75 -345 0 -345 0 0 -75z"/>
<path d="M22060 1200 l0 -560 305 0 305 0 0 80 0 80 -225 0 -225 0 0 190 0
190 220 0 220 0 0 75 0 75 -217 2 -218 3 0 135 0 135 223 3 222 2 0 75 0 75
-305 0 -305 0 0 -560z"/>
<path d="M23312 1203 l3 -558 185 1 c102 1 212 6 245 13 147 27 307 147 374
279 113 224 68 510 -107 673 -126 118 -231 149 -515 149 l-187 0 2 -557z m370
393 c206 -37 328 -182 328 -391 0 -140 -58 -257 -163 -329 -72 -50 -132 -67
-259 -73 l-108 -6 0 407 0 406 63 0 c34 -1 97 -7 139 -14z"/>
<path d="M6869 802 c-48 -110 -151 -373 -148 -376 2 -1 27 -12 54 -24 l50 -21
103 206 c57 113 102 207 100 208 -2 2 -34 15 -71 29 l-68 25 -20 -47z"/>
</g>
</svg>
