<svg width="8" height="13" viewBox="0 0 8 13" fill="none" xmlns="http://www.w3.org/2000/svg">
<path d="M4 0C1.79444 0 0 1.94398 0 4.33334C0 5.05063 0.165539 5.76182 0.480233 6.39262L3.78126 12.8604C3.8252 12.9466 3.90895 13 4 13C4.09105 13 4.1748 12.9466 4.21874 12.8604L7.52099 6.39049C7.83446 5.76182 8 5.0506 8 4.33332C8 1.94398 6.20556 0 4 0ZM4 6.5C2.89722 6.5 2.00001 5.52802 2.00001 4.33334C2.00001 3.13866 2.89722 2.16668 4 2.16668C5.10278 2.16668 5.99999 3.13866 5.99999 4.33334C5.99999 5.52802 5.10278 6.5 4 6.5Z" fill="white"/>
</svg>
