<svg width="31" height="31" viewBox="0 0 31 31" fill="none" xmlns="http://www.w3.org/2000/svg">
<g clip-path="url(#clip0_961_135)">
<path d="M15.8345 0.843262C11.4728 0.843262 7.92432 4.39176 7.92432 8.75342C7.92432 13.1151 11.4728 16.6636 15.8345 16.6636C20.1961 16.6636 23.7446 13.1151 23.7446 8.75342C23.7446 4.39176 20.1961 0.843262 15.8345 0.843262Z" fill="white"/>
<path d="M25.6762 21.8313C23.5106 19.6323 20.6397 18.4214 17.5923 18.4214H14.0767C11.0293 18.4214 8.15834 19.6323 5.99271 21.8313C3.8377 24.0194 2.65088 26.9077 2.65088 29.9644C2.65088 30.4497 3.04439 30.8433 3.52979 30.8433H28.1392C28.6245 30.8433 29.0181 30.4497 29.0181 29.9644C29.0181 26.9077 27.8312 24.0194 25.6762 21.8313Z" fill="white"/>
</g>
<defs>
<clipPath id="clip0_961_135">
<rect width="30" height="30" fill="white" transform="translate(0.834473 0.843262)"/>
</clipPath>
</defs>
</svg>
